<?xml version="1.0" standalone="no"?>
<!DOCTYPE svg PUBLIC "-//W3C//DTD SVG 20010904//EN"
 "http://www.w3.org/TR/2001/REC-SVG-20010904/DTD/svg10.dtd">
<svg version="1.0" xmlns="http://www.w3.org/2000/svg"
 width="512.000000pt" height="512.000000pt" viewBox="0 0 512.000000 512.000000"
 preserveAspectRatio="xMidYMid meet">

<g transform="translate(0.000000,512.000000) scale(0.100000,-0.100000)"
fill="#000000" stroke="none">
<path d="M2505 5095 c-22 -21 -25 -33 -25 -100 l0 -75 -55 0 c-67 0 -105 -29
-105 -80 0 -51 38 -80 105 -80 l55 0 0 -100 0 -100 -115 0 c-110 0 -117 -1
-140 -25 -25 -24 -25 -25 -25 -222 l0 -198 38 -37 c21 -21 47 -57 58 -80 l19
-43 6 56 c3 31 13 71 23 89 12 26 16 63 16 167 l0 133 200 0 200 0 0 -133 c0
-107 3 -141 17 -168 10 -19 19 -65 21 -106 l4 -71 35 68 c19 38 45 78 59 89
l24 19 0 206 c0 206 0 207 -25 231 -23 24 -30 25 -140 25 l-115 0 0 100 0 100
55 0 c67 0 105 29 105 80 0 51 -38 80 -105 80 l-55 0 0 75 c0 67 -3 79 -25
100 -15 16 -36 25 -55 25 -19 0 -40 -9 -55 -25z"/>
<path d="M2505 4055 c-23 -22 -25 -32 -25 -118 l0 -93 -57 -18 c-32 -10 -88
-32 -126 -48 -37 -17 -69 -29 -70 -27 -2 2 -20 47 -41 99 -21 52 -47 103 -58
113 -27 23 -83 22 -108 -3 -30 -30 -25 -69 26 -193 l46 -112 -33 -25 c-18 -14
-62 -49 -97 -79 l-63 -53 -103 101 c-93 91 -107 101 -140 101 -48 0 -76 -28
-76 -76 0 -33 10 -47 101 -140 l101 -103 -53 -63 c-30 -35 -63 -76 -75 -92
l-21 -29 -114 48 c-133 56 -163 59 -196 21 -50 -59 -19 -107 102 -156 127 -51
119 -42 86 -108 -16 -31 -39 -90 -52 -129 l-23 -73 -93 0 c-86 0 -96 -2 -118
-25 -16 -15 -25 -36 -25 -55 0 -19 9 -40 25 -55 22 -23 32 -25 118 -25 l93 0
18 -57 c10 -32 32 -88 48 -126 17 -37 29 -69 27 -70 -2 -2 -47 -21 -99 -42
-52 -21 -103 -47 -112 -58 -24 -26 -23 -82 2 -107 30 -30 69 -25 193 26 l112
46 25 -33 c14 -18 49 -62 79 -97 l53 -63 -101 -103 c-91 -93 -101 -107 -101
-140 0 -48 28 -76 76 -76 33 0 47 10 140 101 l103 101 63 -53 c35 -30 76 -63
92 -75 l29 -21 -48 -114 c-56 -133 -59 -163 -21 -196 59 -50 107 -19 156 102
51 127 42 119 108 86 32 -16 90 -39 130 -51 l72 -22 0 -94 c0 -87 2 -97 25
-119 32 -33 78 -33 110 0 23 22 25 32 25 118 l0 93 58 18 c31 10 87 32 125 48
37 17 69 29 70 27 2 -2 21 -47 42 -99 21 -52 47 -103 58 -112 26 -24 82 -23
107 2 30 30 25 69 -26 193 l-46 112 33 25 c18 14 62 49 97 79 l63 53 103 -101
c93 -91 107 -101 140 -101 48 0 76 28 76 76 0 33 -10 47 -101 140 l-101 103
53 63 c30 35 63 76 75 92 l21 29 114 -48 c133 -56 163 -59 196 -21 50 59 19
107 -102 156 -127 51 -119 42 -86 108 16 31 39 90 52 130 l23 72 93 0 c86 0
96 2 118 25 33 32 33 78 0 110 -22 23 -32 25 -118 25 l-93 0 -18 58 c-10 31
-32 87 -48 125 -17 37 -29 69 -27 70 2 2 47 21 99 42 52 21 103 47 113 58 23
26 22 82 -3 107 -30 30 -69 25 -193 -26 l-112 -46 -25 33 c-14 18 -49 62 -79
97 l-53 63 101 103 c91 93 101 107 101 140 0 48 -28 76 -76 76 -33 0 -47 -10
-140 -101 l-103 -101 -63 53 c-35 30 -77 64 -93 75 l-29 22 48 113 c57 133 60
163 22 196 -59 50 -107 19 -156 -102 -51 -127 -42 -119 -108 -86 -31 16 -90
39 -129 52 l-73 23 0 93 c0 86 -2 96 -25 118 -15 16 -36 25 -55 25 -19 0 -40
-9 -55 -25z m38 -577 c18 -21 23 -74 9 -96 -14 -22 -181 -112 -208 -112 -54 0
-95 80 -61 122 14 19 114 83 160 104 39 17 76 10 100 -18z m260 -59 c56 -29
157 -115 166 -141 20 -56 -31 -117 -85 -104 -39 10 -184 126 -190 153 -8 31
12 78 39 91 29 14 44 14 70 1z m-644 -216 c11 -10 24 -32 27 -49 6 -33 -8 -54
-105 -156 -35 -37 -52 -48 -76 -48 -59 0 -96 50 -76 104 6 13 40 56 77 95 56
60 72 71 99 71 18 0 42 -8 54 -17z m1014 -121 c35 -31 117 -164 117 -188 0
-49 -64 -87 -114 -68 -26 10 -136 170 -136 199 0 74 77 108 133 57z m-488
-113 c91 -45 155 -149 155 -249 0 -150 -130 -280 -280 -280 -186 0 -319 182
-266 365 22 75 100 156 172 179 67 21 159 15 219 -15z m-793 -159 c25 -25 29
-36 24 -62 -4 -20 1 -45 14 -75 26 -60 25 -89 -5 -118 -48 -48 -105 -29 -141
48 -46 101 -40 192 14 222 40 21 60 18 94 -15z m1413 -145 c14 -13 25 -36 25
-50 0 -28 -66 -147 -105 -189 -47 -51 -135 -20 -135 47 0 31 78 168 113 200
28 25 73 22 102 -8z m-1140 -312 c65 -68 74 -83 75 -115 0 -42 -35 -78 -77
-78 -31 0 -179 139 -185 174 -10 53 25 96 79 96 29 0 44 -11 108 -77z m837
-47 c25 -19 39 -62 29 -89 -10 -25 -98 -109 -146 -138 -39 -24 -66 -24 -99 2
-20 16 -26 29 -26 59 0 36 6 43 83 109 86 74 121 87 159 57z m-510 -206 c34
-16 71 -30 81 -30 29 0 67 -45 67 -80 0 -37 -39 -80 -72 -80 -53 0 -164 45
-205 83 -33 30 -32 89 3 116 35 28 50 27 126 -9z"/>
<path d="M625 3175 l-25 -24 0 -311 0 -311 25 -24 24 -25 293 1 c220 1 285 4
260 12 -43 13 -116 78 -132 117 l-12 30 -149 0 -149 0 0 200 0 200 225 0 225
0 -29 45 c-16 25 -32 61 -35 80 l-7 35 -245 0 -245 0 -24 -25z"/>
<path d="M3980 3175 c0 -31 -25 -93 -47 -117 -15 -17 -7 -18 205 -18 l222 0 0
-200 0 -200 -149 0 -149 0 -12 -30 c-16 -39 -89 -104 -132 -117 -25 -8 40 -11
260 -12 l293 -1 24 25 25 24 0 311 0 311 -25 24 -24 25 -246 0 -245 0 0 -25z"/>
<path d="M2291 1463 c-14 -30 -39 -71 -58 -91 l-33 -35 0 -644 0 -644 25 -24
24 -25 311 0 311 0 24 25 25 24 0 638 0 638 -38 37 c-21 21 -47 57 -58 80
l-19 43 -6 -56 c-3 -31 -13 -71 -23 -89 -14 -30 -16 -94 -16 -607 l0 -573
-200 0 -200 0 0 573 c0 521 -2 577 -17 608 -9 19 -20 66 -23 106 l-5 71 -24
-55z"/>
</g>
</svg>
